<?xml version="1.0" encoding="utf-8"?>
<!-- Generator: Adobe Illustrator 25.0.0, SVG Export Plug-In . SVG Version: 6.00 Build 0)  -->
<svg version="1.1" id="Capa_1" xmlns="http://www.w3.org/2000/svg" xmlns:xlink="http://www.w3.org/1999/xlink" x="0px" y="0px"
	 viewBox="0 0 512 512" style="enable-background:new 0 0 512 512;" xml:space="preserve">
<style type="text/css">
	.st0{fill:#FFFFFF;}
</style>
<g>
	<path class="st0" d="M437,75C388.7,26.6,324.4,0,256,0S123.3,26.6,75,75C26.6,123.3,0,187.6,0,256c0,40.7,9.3,79.6,27.5,115.6
		c17.4,34.4,42.9,64.9,73.6,88.3l18.2-23.9c-27.2-20.7-49.7-47.6-65-78C38.2,326.3,30,291.9,30,256c0-60.4,23.5-117.1,66.2-159.8
		S195.6,30,256,30s117.1,23.5,159.8,66.2S482,195.6,482,256s-23.5,117.1-66.2,159.8c-39.1,39.1-90.1,62.1-144.8,65.7v-58.9h45V254.4
		h-30v42.7h-60v-42.7h-30v168.1h45V512h15c68.4,0,132.7-26.6,181-75c48.4-48.4,75-112.6,75-181S485.4,123.3,437,75L437,75z
		 M226,327.2h60v65.4h-60L226,327.2z"/>
	<path class="st0" d="M251.8,74.5l-42.9,82.8h44.5l-24.3,45.6l26.5,14.1l47.8-89.7h-45.2l20.2-39L251.8,74.5z"/>
</g>
</svg>
