<?xml version="1.0" encoding="utf-8"?>
<!-- Generator: Adobe Illustrator 23.1.0, SVG Export Plug-In . SVG Version: 6.00 Build 0)  -->
<svg version="1.1" id="Capa_1" xmlns="http://www.w3.org/2000/svg" xmlns:xlink="http://www.w3.org/1999/xlink" x="0px" y="0px"
	 viewBox="0 0 512 512" style="enable-background:new 0 0 512 512;" xml:space="preserve">
<style type="text/css">
	.st0{fill:#FFFFFF;}
	.st1{fill:#FFFDFD;}
</style>
<path id="XMLID_1002_" class="st0" d="M30.3,0v512h451.4V0H30.3z M451.4,481.7H60.6V30.3h390.8V481.7z"/>
<path id="XMLID_1021_" class="st0" d="M421.5,58.6H90.5v394.7h330.9L421.5,58.6L421.5,58.6z M120.8,88.9h270.3v91.2H120.8V88.9z
	 M120.8,210.3h270.3v91.2H120.8V210.3z M391.2,423H120.8v-91.2h270.3L391.2,423L391.2,423z"/>
<path id="XMLID_1025_" class="st0" d="M348.7,119.3h-0.3c-8.4,0-15.1,6.8-15.1,15.1s6.8,15.1,15.1,15.1h0.3
	c8.4,0,15.1-6.8,15.1-15.1S357.1,119.3,348.7,119.3z"/>
<path id="XMLID_1026_" class="st0" d="M297.2,119.3h-0.3c-8.4,0-15.1,6.8-15.1,15.1s6.8,15.1,15.1,15.1h0.3
	c8.4,0,15.1-6.8,15.1-15.1S305.5,119.3,297.2,119.3z"/>
<path id="XMLID_1027_" class="st0" d="M245.6,119.3h-0.3c-8.4,0-15.1,6.8-15.1,15.1s6.8,15.1,15.1,15.1h0.3
	c8.4,0,15.1-6.8,15.1-15.1S254,119.3,245.6,119.3L245.6,119.3z"/>
<path id="XMLID_1029_" class="st1" d="M348.7,240.9h-0.3c-8.4,0-15.1,6.8-15.1,15.1s6.8,15.1,15.1,15.1h0.3
	c8.4,0,15.1-6.8,15.1-15.1S357.1,240.9,348.7,240.9z"/>
<path id="XMLID_1030_" class="st0" d="M297.2,240.9h-0.3c-8.4,0-15.1,6.8-15.1,15.1s6.8,15.1,15.1,15.1h0.3
	c8.4,0,15.1-6.8,15.1-15.1S305.5,240.9,297.2,240.9z"/>
<path id="XMLID_1031_" class="st0" d="M245.6,240.9h-0.3c-8.4,0-15.1,6.8-15.1,15.1s6.8,15.1,15.1,15.1h0.3
	c8.4,0,15.1-6.8,15.1-15.1S254,240.9,245.6,240.9L245.6,240.9z"/>
<path id="XMLID_1032_" class="st0" d="M348.4,392.7h0.3c8.4,0,15.1-6.8,15.1-15.1s-6.8-15.1-15.1-15.1h-0.3
	c-8.4,0-15.1,6.8-15.1,15.1S340.1,392.7,348.4,392.7z"/>
<path id="XMLID_1033_" class="st0" d="M296.9,392.7h0.3c8.4,0,15.1-6.8,15.1-15.1s-6.8-15.1-15.1-15.1h-0.3
	c-8.4,0-15.1,6.8-15.1,15.1S288.5,392.7,296.9,392.7z"/>
<path id="XMLID_1034_" class="st0" d="M245.3,392.7h0.3c8.4,0,15.1-6.8,15.1-15.1s-6.8-15.1-15.1-15.1h-0.3
	c-8.4,0-15.1,6.8-15.1,15.1S236.9,392.7,245.3,392.7L245.3,392.7z"/>
<path id="XMLID_1035_" class="st0" d="M151.4,119.3h43.9v30.3h-43.9V119.3z"/>
<path id="XMLID_1036_" class="st0" d="M151.4,240.9h43.9v30.3h-43.9V240.9z"/>
<path id="XMLID_1037_" class="st0" d="M151.4,362.4h43.9v30.3h-43.9V362.4z"/>
</svg>
