<svg height="512pt" viewBox="0 -31 512 511" width="512pt" xmlns="http://www.w3.org/2000/svg"><path d="m497.003906.5h-482.007812c-8.28125 0-14.996094 6.714844-14.996094 14.996094 0 8.277344 6.714844 14.992187 14.996094 14.992187h16.191406v74.972657c0 8.277343 6.714844 14.992187 14.996094 14.992187h17.605468c1.136719 5.652344 26.96875 134.371094 27.71875 138.097656 1.40625 7.003907 7.558594 12.042969 14.703126 12.042969.003906 0 299.902343-.398438 299.902343-.398438 7.140625-.011718 13.289063-5.058593 14.683594-12.0625 1.023437-5.132812 26.429687-132.625 27.4375-137.679687h17.785156c8.277344 0 14.992188-6.710937 14.992188-14.992187v-74.972657h15.992187c8.28125 0 14.996094-6.710937 14.996094-14.992187s-6.714844-14.996094-14.996094-14.996094zm-402.625 119.953125h56.761719v59.976563h-44.726563zm299.410156 119.96875-275.300781.367187-6.054687-30.371093h287.292968zm-212.660156-59.992187v-59.976563h32.566406c4.527344 12.757813 14.652344 22.882813 27.410157 27.410156v32.566407zm74.972656-59.976563c-8.269531 0-14.996093-6.726563-14.996093-14.992187 0-8.269532 6.726562-14.996094 14.996093-14.996094 8.265626 0 14.992188 6.726562 14.992188 14.996094 0 8.265624-6.726562 14.992187-14.992188 14.992187zm42.402344 0h32.566406v59.976563h-59.976562v-32.566407c12.757812-4.527343 22.882812-14.652343 27.410156-27.410156zm107.199219 59.976563h-44.644531v-59.976563h56.597656zm45.320313-89.964844h-152.519532c-6.191406-17.449219-22.855468-29.988282-42.402344-29.988282-19.550781 0-36.214843 12.539063-42.40625 29.988282h-152.519531v-59.976563h389.847657zm0 0"/><path d="m174.019531 362.597656c-4.863281-3.003906-7.882812-9.605468-7.882812-17.230468s3.019531-14.230469 7.882812-17.234376c7.042969-4.355468 9.222657-13.59375 4.871094-20.640624-4.351563-7.042969-13.59375-9.222657-20.636719-4.871094-13.84375 8.554687-22.105468 24.535156-22.105468 42.746094 0 18.207031 8.261718 34.1875 22.105468 42.742187 4.859375 3.003906 7.882813 9.609375 7.882813 17.234375s-3.019531 14.226562-7.882813 17.230469c-7.046875 4.355469-9.226562 13.59375-4.875 20.640625 2.835938 4.585937 7.746094 7.113281 12.769532 7.113281 2.691406 0 5.414062-.726563 7.867187-2.242187 13.84375-8.554688 22.105469-24.535157 22.105469-42.742188 0-18.210938-8.261719-34.191406-22.101563-42.746094zm0 0"/><path d="m263.984375 362.597656c-4.863281-3.003906-7.882813-9.605468-7.882813-17.230468s3.019532-14.230469 7.882813-17.234376c7.042969-4.355468 9.222656-13.59375 4.871094-20.640624-4.351563-7.042969-13.59375-9.222657-20.636719-4.871094-13.84375 8.554687-22.105469 24.535156-22.105469 42.746094 0 18.207031 8.261719 34.1875 22.105469 42.742187 4.859375 3.003906 7.882812 9.609375 7.882812 17.234375s-3.019531 14.226562-7.882812 17.230469c-7.046875 4.355469-9.226562 13.59375-4.875 20.640625 2.835938 4.585937 7.746094 7.113281 12.769531 7.113281 2.691407 0 5.414063-.726563 7.867188-2.242187 13.84375-8.554688 22.105469-24.535157 22.105469-42.742188 0-18.210938-8.261719-34.191406-22.101563-42.746094zm0 0"/><path d="m353.949219 362.597656c-4.863281-3.003906-7.882813-9.605468-7.882813-17.230468s3.019532-14.230469 7.882813-17.234376c7.042969-4.355468 9.222656-13.59375 4.871093-20.640624-4.351562-7.042969-13.59375-9.222657-20.636718-4.871094-13.84375 8.554687-22.105469 24.535156-22.105469 42.746094 0 18.207031 8.261719 34.1875 22.105469 42.742187 4.859375 3.003906 7.882812 9.609375 7.882812 17.234375s-3.019531 14.226562-7.882812 17.230469c-7.046875 4.355469-9.226563 13.59375-4.875 20.640625 2.835937 4.585937 7.746094 7.113281 12.769531 7.113281 2.691406 0 5.414063-.726563 7.867187-2.242187 13.84375-8.554688 22.105469-24.535157 22.105469-42.742188 0-18.210938-8.261719-34.191406-22.101562-42.746094zm0 0"/></svg>