<?xml version="1.0" encoding="utf-8"?>
<!-- Generator: Adobe Illustrator 25.0.0, SVG Export Plug-In . SVG Version: 6.00 Build 0)  -->
<svg version="1.1" id="Capa_1" xmlns="http://www.w3.org/2000/svg" xmlns:xlink="http://www.w3.org/1999/xlink" x="0px" y="0px"
	 viewBox="0 0 19.8 22.5" style="enable-background:new 0 0 19.8 22.5;" xml:space="preserve">
<style type="text/css">
	.st0{fill:#FFFFFF;}
	.st1{fill:#FFFDFD;}
</style>
<path id="XMLID_1002_" class="st0" d="M0,0v22.5h19.8V0H0z M18.5,21.1H1.3V1.3h17.1V21.1z"/>
<path id="XMLID_1021_" class="st0" d="M17.2,2.6H2.6v17.3h14.5L17.2,2.6L17.2,2.6z M4,3.9h11.9v4H4V3.9z M4,9.2h11.9v4H4V9.2z
	 M15.8,18.6H4v-4h11.9L15.8,18.6L15.8,18.6z"/>
<path id="XMLID_1025_" class="st0" d="M14,5.2L14,5.2c-0.4,0-0.7,0.3-0.7,0.7s0.3,0.7,0.7,0.7h0c0.4,0,0.7-0.3,0.7-0.7
	S14.3,5.2,14,5.2z"/>
<path id="XMLID_1026_" class="st0" d="M11.7,5.2L11.7,5.2c-0.4,0-0.7,0.3-0.7,0.7s0.3,0.7,0.7,0.7h0c0.4,0,0.7-0.3,0.7-0.7
	S12.1,5.2,11.7,5.2z"/>
<path id="XMLID_1027_" class="st0" d="M9.4,5.2L9.4,5.2c-0.4,0-0.7,0.3-0.7,0.7s0.3,0.7,0.7,0.7h0c0.4,0,0.7-0.3,0.7-0.7
	S9.8,5.2,9.4,5.2L9.4,5.2z"/>
<path id="XMLID_1029_" class="st1" d="M14,10.6L14,10.6c-0.4,0-0.7,0.3-0.7,0.7c0,0.4,0.3,0.7,0.7,0.7h0c0.4,0,0.7-0.3,0.7-0.7
	S14.3,10.6,14,10.6z"/>
<path id="XMLID_1030_" class="st0" d="M11.7,10.6L11.7,10.6c-0.4,0-0.7,0.3-0.7,0.7c0,0.4,0.3,0.7,0.7,0.7h0c0.4,0,0.7-0.3,0.7-0.7
	S12.1,10.6,11.7,10.6z"/>
<path id="XMLID_1031_" class="st0" d="M9.4,10.6L9.4,10.6c-0.4,0-0.7,0.3-0.7,0.7c0,0.4,0.3,0.7,0.7,0.7h0c0.4,0,0.7-0.3,0.7-0.7
	S9.8,10.6,9.4,10.6L9.4,10.6z"/>
<path id="XMLID_1032_" class="st0" d="M14,17.2L14,17.2c0.4,0,0.7-0.3,0.7-0.7s-0.3-0.7-0.7-0.7h0c-0.4,0-0.7,0.3-0.7,0.7
	S13.6,17.2,14,17.2z"/>
<path id="XMLID_1033_" class="st0" d="M11.7,17.2L11.7,17.2c0.4,0,0.7-0.3,0.7-0.7s-0.3-0.7-0.7-0.7h0c-0.4,0-0.7,0.3-0.7,0.7
	S11.3,17.2,11.7,17.2z"/>
<path id="XMLID_1034_" class="st0" d="M9.4,17.2L9.4,17.2c0.4,0,0.7-0.3,0.7-0.7s-0.3-0.7-0.7-0.7h0c-0.4,0-0.7,0.3-0.7,0.7
	S9.1,17.2,9.4,17.2L9.4,17.2z"/>
<path id="XMLID_1035_" class="st0" d="M5.3,5.2h1.9v1.3H5.3V5.2z"/>
<path id="XMLID_1036_" class="st0" d="M5.3,10.6h1.9v1.3H5.3V10.6z"/>
<path id="XMLID_1037_" class="st0" d="M5.3,15.9h1.9v1.3H5.3V15.9z"/>
</svg>
