<svg id="Capa_1" enable-background="new 0 0 512 512" height="512" viewBox="0 0 512 512" width="512" xmlns="http://www.w3.org/2000/svg"><g><path d="m25.605 491.605 22.211-21.211c5.859-5.859 5.859-15.352 0-21.211s-15.352-5.859-21.211 0l-22.21 21.212c-5.859 5.859-5.859 15.352 0 21.211s15.351 5.859 21.21-.001z"/><path d="m90.253 427.973 21.211-21.226c5.859-5.859 5.859-15.366 0-21.211-5.859-5.859-15.352-5.859-21.211 0l-21.211 21.226c-5.859 5.859-5.859 15.366 0 21.211 5.859 5.859 15.352 5.859 21.211 0z"/><path d="m153.886 364.325 21.211-21.211c5.859-5.859 5.859-15.352 0-21.211s-15.352-5.859-21.211 0l-21.211 21.211c-5.859 5.859-5.859 15.352 0 21.211s15.351 5.86 21.211 0z"/><path d="m485.395 449.184c-5.859-5.859-15.352-5.859-21.211 0s-5.859 15.352 0 21.211l22.211 21.211c5.859 5.859 15.352 5.859 21.211 0s5.859-15.352 0-21.211z"/><path d="m442.958 427.973c5.859-5.845 5.859-15.352 0-21.211l-21.211-21.226c-5.859-5.859-15.352-5.859-21.211 0-5.859 5.845-5.859 15.352 0 21.211l21.211 21.226c5.859 5.859 15.352 5.859 21.211 0z"/><path d="m379.325 364.325c5.859-5.859 5.859-15.352 0-21.211l-21.211-21.211c-5.859-5.859-15.352-5.859-21.211 0s-5.859 15.352 0 21.211l21.211 21.211c5.86 5.86 15.352 5.86 21.211 0z"/><path d="m256 376c8.291 0 15-6.709 15-15v-30c0-8.291-6.709-15-15-15s-15 6.709-15 15v30c0 8.291 6.709 15 15 15z"/><path d="m241 451c0 8.291 6.709 15 15 15s15-6.709 15-15v-30c0-8.291-6.709-15-15-15s-15 6.709-15 15z"/><path d="m497 16h-482c-8.291 0-15 6.709-15 15s6.709 15 15 15h106v15c0 19.999 13.2 36.791 31.278 42.634 5.722 46.91 42.134 84.095 88.722 90.85v31.516h-15c-24.814 0-45 20.186-45 45 0 8.291 6.709 15 15 15s15-6.709 15-15c0-8.276 6.724-15 15-15h15v15c0 8.291 6.709 15 15 15s15-6.709 15-15v-15h15c8.276 0 15 6.724 15 15 0 8.291 6.709 15 15 15s15-6.709 15-15c0-24.814-20.186-45-45-45h-15v-31.516c46.588-6.755 83-43.94 88.722-90.85 18.078-5.843 31.278-22.635 31.278-42.634v-15h106c8.291 0 14-6.709 14-15s-5.709-15-14-15zm-314.482 90h58.482v58.482c-29.343-5.98-52.502-29.139-58.482-58.482zm88.482 58.482v-58.492h58.482c-5.98 29.353-29.139 52.512-58.482 58.492z"/></g></svg>